<?xml version="1.0" encoding="utf-8"?>
<!-- Generator: Adobe Illustrator 21.0.0, SVG Export Plug-In . SVG Version: 6.00 Build 0)  -->
<svg version="1.1" id="Слой_1" xmlns="http://www.w3.org/2000/svg" xmlns:xlink="http://www.w3.org/1999/xlink" x="0px" y="0px"
	 viewBox="0 0 255 45" style="enable-background:new 0 0 255 45;" xml:space="preserve">
<g>
	<g>
		<g>
			<path style="fill:#595959;" d="M30.2,30.6H30c-1.6,2.3-4.1,3.5-7.3,3.5c-3.1,0-5.4-1-7.1-3.2C13.8,29,13,26.1,13,22.1
				s0.9-6.9,2.6-9s4.1-3.2,7.1-3.2c3.2,0,5.5,1.2,7.3,3.5h0.3l-0.1-1.7L30,10V0.6h3.5v33.2h-2.9L30.2,30.6z M23.2,31.2
				c2.5,0,4.2-0.7,5.2-2s1.6-3.5,1.6-6.4V22c0-3.4-0.6-5.7-1.6-7.1c-1.2-1.5-2.9-2.2-5.2-2.2c-2,0-3.6,0.9-4.8,2.5
				c-1.2,1.6-1.6,3.9-1.6,6.9c0,3.1,0.6,5.2,1.6,6.7C19.4,30.4,21,31.2,23.2,31.2z"/>
			<path style="fill:#595959;" d="M52,34.2c-3.5,0-6.1-1-8.2-3.2c-2-2-3.1-5.1-3.1-8.7c0-3.8,0.9-6.7,2.8-9c1.9-2.3,4.4-3.4,7.4-3.4
				c2.9,0,5.2,1,7,2.9c1.7,1.9,2.6,4.5,2.6,7.6v2.2h-16c0,2.8,0.7,4.8,2,6.3c1.3,1.5,3.2,2.2,5.5,2.2c2.5,0,5-0.6,7.4-1.6v3.2
				c-1.3,0.6-2.5,0.9-3.5,1.2C55,34.1,53.6,34.2,52,34.2z M51.2,12.9c-1.9,0-3.4,0.6-4.5,1.9c-1.2,1.2-1.7,2.9-2,5.1h12.2
				c0-2.2-0.4-3.9-1.5-5.1C54.4,13.5,52.9,12.9,51.2,12.9z"/>
			<path style="fill:#595959;" d="M83,27.4c0,2.2-0.9,3.8-2.5,5.1c-1.6,1.3-3.9,1.7-6.9,1.7c-3.1,0-5.5-0.4-7.3-1.5v-3.4
				c1.2,0.6,2.3,1,3.6,1.3c1.3,0.3,2.5,0.4,3.8,0.4c1.9,0,3.2-0.3,4.2-0.9c1-0.6,1.5-1.5,1.5-2.8c0-0.9-0.4-1.7-1.2-2.3
				c-0.7-0.6-2.3-1.5-4.7-2.3c-2.2-0.9-3.8-1.5-4.7-2.2c-0.9-0.7-1.6-1.3-2-2c-0.4-0.7-0.7-1.7-0.7-2.8c0-1.9,0.7-3.4,2.3-4.5
				c1.6-1.2,3.6-1.6,6.4-1.6c2.5,0,5,0.6,7.4,1.6l-1.3,2.9c-2.3-1-4.5-1.5-6.4-1.5c-1.7,0-2.9,0.3-3.8,0.7c-0.9,0.4-1.3,1.3-1.3,2.2
				c0,0.6,0.1,1.2,0.4,1.6c0.3,0.4,0.9,0.9,1.6,1.3c0.7,0.4,2,1,4.1,1.7c2.8,1,4.7,2,5.7,3.1C82.4,24.6,83,25.8,83,27.4z"/>
			<path style="fill:#595959;" d="M89.5,4.1c0-0.9,0.1-1.5,0.6-1.7c0.4-0.4,0.9-0.6,1.5-0.6s1,0.1,1.5,0.6s0.6,1,0.6,1.7
				S93.5,5.5,93,5.8c-0.4,0.4-0.9,0.6-1.5,0.6s-1.2-0.1-1.5-0.6C89.7,5.4,89.5,4.8,89.5,4.1z M93.3,33.8h-3.5V10.3h3.5V33.8z"/>
			<path style="fill:#595959;" d="M121.2,10.3v2.2l-4.4,0.6c0.4,0.4,0.7,1.2,1,1.9c0.3,0.9,0.4,1.7,0.4,2.8c0,2.3-0.7,4.1-2.3,5.5
				c-1.6,1.3-3.6,2-6.4,2c-0.7,0-1.3,0-1.9-0.1c-1.5,0.7-2.3,1.7-2.3,3.1c0,0.6,0.3,1.2,0.7,1.5c0.6,0.3,1.5,0.4,2.8,0.4h4.1
				c2.5,0,4.5,0.6,5.8,1.6s2,2.6,2,4.7c0,2.6-1,4.5-3.1,6c-2,1.3-5.1,2-9,2c-3.1,0-5.4-0.6-7.1-1.7c-1.6-1.3-2.5-2.9-2.5-5
				c0-1.5,0.4-2.6,1.3-3.6c0.9-1,2.2-1.7,3.8-2.2c-0.6-0.3-1.2-0.7-1.5-1.3s-0.6-1.2-0.6-2c0-0.9,0.3-1.6,0.7-2.2
				c0.4-0.6,1.2-1.3,2.2-1.9c-1.2-0.4-2.2-1.3-2.9-2.5c-0.7-1.2-1.2-2.6-1.2-4.1c0-2.6,0.7-4.5,2.3-6c1.6-1.5,3.6-2,6.6-2
				c1.2,0,2.3,0.1,3.4,0.4L121.2,10.3z M102.5,37.7c0,1.3,0.6,2.2,1.6,2.9c1,0.7,2.6,1,4.5,1c2.9,0,5.2-0.4,6.6-1.3
				c1.5-0.9,2.2-2,2.2-3.6c0-1.3-0.4-2.2-1.2-2.6c-0.7-0.4-2.2-0.7-4.4-0.7h-4.2c-1.6,0-2.9,0.4-3.8,1.2
				C102.9,35.3,102.5,36.3,102.5,37.7z M104.4,17.9c0,1.6,0.4,2.9,1.5,3.6c0.9,0.9,2.2,1.3,3.9,1.3c3.5,0,5.2-1.7,5.2-5.1
				c0-3.5-1.7-5.2-5.2-5.2c-1.6,0-2.9,0.4-3.8,1.3S104.4,16.2,104.4,17.9z"/>
			<path style="fill:#595959;" d="M143,33.8V18.6c0-1.9-0.4-3.4-1.3-4.2c-0.9-0.9-2.2-1.5-4.1-1.5c-2.5,0-4.2,0.7-5.4,2
				c-1.2,1.3-1.7,3.5-1.7,6.6v12.2H127V10.3h2.9l0.6,3.2h0.1c0.7-1.2,1.7-2,3.1-2.6c1.3-0.6,2.8-1,4.4-1c2.8,0,5,0.7,6.4,2
				s2.2,3.5,2.2,6.6v15.3H143z"/>
			<path style="fill:#595959;" d="M197.3,33.8V18.5c0-1.9-0.4-3.2-1.2-4.2c-0.7-0.9-2-1.5-3.6-1.5c-2.2,0-3.8,0.6-5,1.9
				c-1,1.3-1.6,3.2-1.6,5.8v13.1h-3.5V18.5c0-1.9-0.4-3.2-1.2-4.2c-0.7-0.9-2-1.5-3.8-1.5c-2.2,0-3.8,0.7-4.8,2s-1.6,3.5-1.6,6.6
				v12.2h-3.5V10.3h2.9l0.6,3.2h0.1c0.7-1.2,1.6-2,2.8-2.6c1.2-0.6,2.6-1,4.1-1c3.6,0,6.1,1.3,7.1,3.9h0.1c0.7-1.2,1.7-2.2,3.1-2.9
				c1.3-0.7,2.8-1,4.5-1c2.6,0,4.7,0.7,6,2c1.3,1.3,2,3.5,2,6.6v15.3H197.3z"/>
			<path style="fill:#595959;" d="M223.5,33.8l-0.7-3.4h-0.1c-1.2,1.5-2.3,2.5-3.5,2.9c-1.2,0.6-2.6,0.7-4.4,0.7
				c-2.3,0-4.1-0.6-5.4-1.7c-1.3-1.2-2-2.9-2-5.1c0-4.7,3.8-7.1,11.4-7.4l3.9-0.1v-1.5c0-1.9-0.4-3.2-1.2-4.1
				c-0.7-0.9-2-1.3-3.8-1.3c-1.9,0-4.2,0.6-6.6,1.7l-1-2.8c1.2-0.6,2.5-1.2,3.8-1.5s2.8-0.6,4.1-0.6c2.8,0,4.8,0.6,6.3,1.9
				s2,3.2,2,6v16h-2.8V33.8z M215.6,31.3c2.2,0,3.9-0.6,5.2-1.7c1.3-1.2,1.9-2.9,1.9-5.1v-2.2l-3.5,0.1c-2.8,0.1-4.8,0.6-6.1,1.3
				c-1.3,0.7-1.9,2-1.9,3.6c0,1.3,0.4,2.2,1.2,2.9C213.2,30.9,214.2,31.3,215.6,31.3z"/>
			<path style="fill:#595959;" d="M245.5,34.2c-1.5,0-2.9-0.3-4.2-0.9c-1.3-0.6-2.3-1.5-3.2-2.6h-0.3c0.1,1.3,0.3,2.6,0.3,3.9v9.6
				h-3.5v-34h2.9l0.4,3.2h0.1c0.9-1.3,2-2.2,3.2-2.8s2.6-0.9,4.2-0.9c3.1,0,5.5,1,7.1,3.2s2.5,5.1,2.5,8.9s-0.9,6.9-2.6,8.9
				C250.9,33.2,248.6,34.2,245.5,34.2z M245,12.9c-2.3,0-4.1,0.7-5.2,2c-1.2,1.3-1.6,3.5-1.6,6.3V22c0,3.4,0.6,5.7,1.6,7
				c1.2,1.5,2.9,2.2,5.2,2.2c2,0,3.6-0.9,4.8-2.5c1.2-1.6,1.7-3.9,1.7-6.7c0-2.9-0.6-5.1-1.7-6.7C248.7,13.7,247.1,12.9,245,12.9z"
				/>
		</g>
		<circle style="fill:#595959;" cx="157" cy="29" r="2.9"/>
		<circle style="fill:#595959;" cx="157" cy="18.1" r="2.9"/>
		<circle style="fill:#595959;" cx="2.8" cy="29" r="2.9"/>
		<circle style="fill:#595959;" cx="2.8" cy="18.1" r="2.9"/>
	</g>
</g>
</svg>
